<?xml version="1.0" encoding="UTF-8"?>
<svg viewBox="0 0 288.95108 191.20392" xmlns="http://www.w3.org/2000/svg">
 <defs>
  <radialGradient id="a" cx="132.24" cy="802.23" r="94.236" gradientTransform="matrix(1.809 -.10859 .10241 1.706 -52.861 -907.8)" gradientUnits="userSpaceOnUse">
   <stop stop-color="#e9fffb" stop-opacity=".91775" offset="0"/>
   <stop stop-color="#72dac5" stop-opacity="0" offset="1"/>
  </radialGradient>
 </defs>
 <g transform="translate(-238.38 -419.62)">
  <path d="m443.64 482.73c29.857 0.0639 58.937 2.2613 68.183 7.081 19.249 10.033 14.035 72.17 0 79.485-2.7086 1.4119-9.0841 2.5788-17.745 3.4903 0.39549 6.2036-0.25772 15.098-5.7433 21.795-12.55 15.322-37.158 13.183-37.158 13.183s22.592-7.9111 28.55-19.724c2.2774-4.5148 2.1121-9.6034 1.057-14.162-39.475 2.5284-102.24 1.2865-113.5-4.5826-16.15-8.4179-17.342-70.446 0-79.485 8.7629-4.5675 43.049-7.1523 76.36-7.081z" fill="#789cae" stroke="#000" stroke-linejoin="round" stroke-width="5.9085"/>
  <path d="m334.83 422.57c-34.573 0.08193-68.245 2.9003-78.952 9.0819-22.289 12.869-16.252 92.563 0 101.95 3.1364 1.8108 10.519 3.3074 20.547 4.4766-0.458 7.9565 0.29844 19.364 6.6503 27.954 14.532 19.652 43.026 16.908 43.026 16.908s-26.159-10.147-33.059-25.297c-2.637-5.7906-2.4456-12.317-1.2238-18.164 45.709 3.2429 118.39 1.65 131.43-5.8775 18.7-10.797 20.081-90.352 0-101.95-10.147-5.8582-49.847-9.1734-88.42-9.0819z" fill="#72dac5" stroke="#000" stroke-linejoin="round" stroke-width="5.9085"/>
  <path d="m331.69 426.59c-24.45 0.92242-49.731-0.02837-73.062 8.1875-10.881 7.1848-11.356 21.945-12.814 33.748-1.248 20.065 0.07148 41.07 9.3456 59.127 5.917 7.2437 34.016 7.4824 41.155 8.0803 40.037 1.8327 80.851 2.9544 120.31-3.799 8.4136-1.6336 11.244-10.386 13.188-17.625 5.8422-22.333 5.3772-46.638-1.25-68.719-2.0554-7.2923-8.4337-12.644-16.094-13.188-25.752-5.6002-52.569-5.3672-78.906-5.8225l-0.99999 0.00532-0.87507 0.00465z" fill="url(#a)"/>
 </g>
</svg>
